HIERARCHY
ROOT Hips
{
	OFFSET 0.000000 100.481300 0.000000
	CHANNELS 6 Xposition Yposition Zposition Xrotation Yrotation Zrotation
	JOINT Spine
	{
		OFFSET -0.279200 12.230698 -2.892100
		CHANNELS 3 Xrotation Yrotation Zrotation
		JOINT Spine1
		{
			OFFSET -0.325700 14.269203 -3.374200
			CHANNELS 3 Xrotation Yrotation Zrotation
			JOINT Spine2
			{
				OFFSET -0.372300 16.307602 -0.352600
				CHANNELS 3 Xrotation Yrotation Zrotation
				JOINT Neck
				{
					OFFSET -0.418800 17.814194 8.416900
					CHANNELS 3 Xrotation Yrotation Zrotation
					JOINT Head
					{
						OFFSET 0.000000 7.031097 3.806800
						CHANNELS 3 Xrotation Yrotation Zrotation
						JOINT HeadTop_End
						{
							OFFSET 0.000000 24.646606 12.978600
							CHANNELS 3 Xrotation Yrotation Zrotation
							End Site
							{
								OFFSET 0.000000 27.854965 0.000000
							}
						}
					}
				}
				JOINT LeftShoulder
				{
					OFFSET 16.952999 14.495407 -7.737500
					CHANNELS 3 Xrotation Yrotation Zrotation
					JOINT LeftArm
					{
						OFFSET 9.308998 -2.777710 0.208600
						CHANNELS 3 Xrotation Yrotation Zrotation
						JOINT LeftForeArm
						{
							OFFSET 29.972298 0.000000 0.000000
							CHANNELS 3 Xrotation Yrotation Zrotation
							JOINT LeftHand
							{
								OFFSET 26.026505 0.000000 0.000000
								CHANNELS 3 Xrotation Yrotation Zrotation
								JOINT LeftHandThumb1
								{
									OFFSET 12.240501 -7.147949 9.207150
									CHANNELS 3 Xrotation Yrotation Zrotation
									JOINT LeftHandThumb2
									{
										OFFSET 4.138618 -2.389435 2.389433
										CHANNELS 3 Xrotation Yrotation Zrotation
										JOINT LeftHandThumb3
										{
											OFFSET 2.726913 -1.574387 1.574386
											CHANNELS 3 Xrotation Yrotation Zrotation
											JOINT LeftHandThumb4
											{
												OFFSET 3.941010 -2.275345 2.275342
												CHANNELS 3 Xrotation Yrotation Zrotation
												End Site
												{
													OFFSET -0.005798 5.087799 0.009903
												}
											}
										}
									}
								}
								JOINT LeftHandIndex1
								{
									OFFSET 24.424698 -1.985611 5.953459
									CHANNELS 3 Xrotation Yrotation Zrotation
									JOINT LeftHandIndex2
									{
										OFFSET 6.426697 0.000000 0.000000
										CHANNELS 3 Xrotation Yrotation Zrotation
										JOINT LeftHandIndex3
										{
											OFFSET 5.337898 0.000000 0.000000
											CHANNELS 3 Xrotation Yrotation Zrotation
											JOINT LeftHandIndex4
											{
												OFFSET 4.409401 0.000000 0.000000
												CHANNELS 3 Xrotation Yrotation Zrotation
												End Site
												{
													OFFSET 0.000000 4.409363 0.014373
												}
											}
										}
									}
								}
								JOINT LeftHandMiddle1
								{
									OFFSET 23.810104 0.000000 0.000000
									CHANNELS 3 Xrotation Yrotation Zrotation
									JOINT LeftHandMiddle2
									{
										OFFSET 7.176498 0.000000 0.000000
										CHANNELS 3 Xrotation Yrotation Zrotation
										JOINT LeftHandMiddle3
										{
											OFFSET 6.774902 0.000000 0.000000
											CHANNELS 3 Xrotation Yrotation Zrotation
											JOINT LeftHandMiddle4
											{
												OFFSET 5.403328 0.000000 0.000000
												CHANNELS 3 Xrotation Yrotation Zrotation
												End Site
												{
													OFFSET -0.027702 5.403244 0.017414
												}
											}
										}
									}
								}
								JOINT LeftHandRing1
								{
									OFFSET 22.908401 -0.839279 -6.020567
									CHANNELS 3 Xrotation Yrotation Zrotation
									JOINT LeftHandRing2
									{
										OFFSET 6.337502 0.000000 0.000000
										CHANNELS 3 Xrotation Yrotation Zrotation
										JOINT LeftHandRing3
										{
											OFFSET 5.779297 0.000000 0.000000
											CHANNELS 3 Xrotation Yrotation Zrotation
											JOINT LeftHandRing4
											{
												OFFSET 4.965698 0.000000 0.000000
												CHANNELS 3 Xrotation Yrotation Zrotation
												End Site
												{
													OFFSET 0.000000 4.965668 0.016186
												}
											}
										}
									}
								}
								JOINT LeftHandPinky1
								{
									OFFSET 20.037003 -1.530319 -10.950146
									CHANNELS 3 Xrotation Yrotation Zrotation
									JOINT LeftHandPinky2
									{
										OFFSET 5.254700 0.000000 0.000000
										CHANNELS 3 Xrotation Yrotation Zrotation
										JOINT LeftHandPinky3
										{
											OFFSET 4.810204 0.000000 0.000000
											CHANNELS 3 Xrotation Yrotation Zrotation
											JOINT LeftHandPinky4
											{
												OFFSET 3.647202 0.000000 0.000000
												CHANNELS 3 Xrotation Yrotation Zrotation
												End Site
												{
													OFFSET 0.000000 3.647186 0.011889
												}
											}
										}
									}
								}
							}
						}
					}
				}
				JOINT RightShoulder
				{
					OFFSET -15.141001 14.495407 -7.737500
					CHANNELS 3 Xrotation Yrotation Zrotation
					JOINT RightArm
					{
						OFFSET -9.308998 -2.777710 0.208500
						CHANNELS 3 Xrotation Yrotation Zrotation
						JOINT RightForeArm
						{
							OFFSET -29.972300 0.000000 0.000000
							CHANNELS 3 Xrotation Yrotation Zrotation
							JOINT RightHand
							{
								OFFSET -26.026505 0.000000 0.000000
								CHANNELS 3 Xrotation Yrotation Zrotation
								JOINT RightHandThumb1
								{
									OFFSET -12.240601 -7.148026 9.207092
									CHANNELS 3 Xrotation Yrotation Zrotation
									JOINT RightHandThumb2
									{
										OFFSET -4.138618 -2.389435 2.389433
										CHANNELS 3 Xrotation Yrotation Zrotation
										JOINT RightHandThumb3
										{
											OFFSET -2.726974 -1.574417 1.574421
											CHANNELS 3 Xrotation Yrotation Zrotation
											JOINT RightHandThumb4
											{
												OFFSET -3.941010 -2.275345 2.275343
												CHANNELS 3 Xrotation Yrotation Zrotation
												End Site
												{
													OFFSET 0.005814 5.087799 0.009927
												}
											}
										}
									}
								}
								JOINT RightHandIndex1
								{
									OFFSET -24.424698 -1.985657 5.953444
									CHANNELS 3 Xrotation Yrotation Zrotation
									JOINT RightHandIndex2
									{
										OFFSET -6.426697 0.000000 0.000000
										CHANNELS 3 Xrotation Yrotation Zrotation
										JOINT RightHandIndex3
										{
											OFFSET -5.337898 0.000000 0.000000
											CHANNELS 3 Xrotation Yrotation Zrotation
											JOINT RightHandIndex4
											{
												OFFSET -4.409401 0.000000 0.000000
												CHANNELS 3 Xrotation Yrotation Zrotation
												End Site
												{
													OFFSET 0.000000 4.409363 0.014408
												}
											}
										}
									}
								}
								JOINT RightHandMiddle1
								{
									OFFSET -23.810097 0.000000 0.000000
									CHANNELS 3 Xrotation Yrotation Zrotation
									JOINT RightHandMiddle2
									{
										OFFSET -7.176498 0.000000 0.000000
										CHANNELS 3 Xrotation Yrotation Zrotation
										JOINT RightHandMiddle3
										{
											OFFSET -6.774902 0.000000 0.000000
											CHANNELS 3 Xrotation Yrotation Zrotation
											JOINT RightHandMiddle4
											{
												OFFSET -5.403328 0.000000 0.000000
												CHANNELS 3 Xrotation Yrotation Zrotation
												End Site
												{
													OFFSET 0.027702 5.403244 0.017457
												}
											}
										}
									}
								}
								JOINT RightHandRing1
								{
									OFFSET -22.908302 -0.839325 -6.020576
									CHANNELS 3 Xrotation Yrotation Zrotation
									JOINT RightHandRing2
									{
										OFFSET -6.337502 0.000000 0.000000
										CHANNELS 3 Xrotation Yrotation Zrotation
										JOINT RightHandRing3
										{
											OFFSET -5.779297 0.000000 0.000000
											CHANNELS 3 Xrotation Yrotation Zrotation
											JOINT RightHandRing4
											{
												OFFSET -4.965698 0.000000 0.000000
												CHANNELS 3 Xrotation Yrotation Zrotation
												End Site
												{
													OFFSET 0.000000 4.965668 0.016226
												}
											}
										}
									}
								}
								JOINT RightHandPinky1
								{
									OFFSET -20.037003 -1.530334 -10.950259
									CHANNELS 3 Xrotation Yrotation Zrotation
									JOINT RightHandPinky2
									{
										OFFSET -5.254700 0.000000 0.000000
										CHANNELS 3 Xrotation Yrotation Zrotation
										JOINT RightHandPinky3
										{
											OFFSET -4.810204 0.000000 0.000000
											CHANNELS 3 Xrotation Yrotation Zrotation
											JOINT RightHandPinky4
											{
												OFFSET -3.647202 0.000000 0.000000
												CHANNELS 3 Xrotation Yrotation Zrotation
												End Site
												{
													OFFSET 0.000000 3.647186 0.011917
												}
											}
										}
									}
								}
							}
						}
					}
				}
			}
		}
	}
	JOINT LeftUpLeg
	{
		OFFSET 15.427100 -6.655098 0.678600
		CHANNELS 3 Xrotation Yrotation Zrotation
		JOINT LeftLeg
		{
			OFFSET 4.081073 -39.591068 13.024000
			CHANNELS 3 Xrotation Yrotation Zrotation
			JOINT LeftFoot
			{
				OFFSET -4.081074 -37.707932 -15.979700
				CHANNELS 3 Xrotation Yrotation Zrotation
				JOINT LeftToeBase
				{
					OFFSET 5.346399 -15.068900 20.645000
					CHANNELS 3 Xrotation Yrotation Zrotation
					JOINT LeftToe_End
					{
						OFFSET 2.754700 0.931300 11.300900
						CHANNELS 3 Xrotation Yrotation Zrotation
						End Site
						{
							OFFSET 0.000000 11.669021 0.000000
						}
					}
				}
			}
		}
	}
	JOINT RightUpLeg
	{
		OFFSET -15.569500 -6.655098 0.678600
		CHANNELS 3 Xrotation Yrotation Zrotation
		JOINT RightLeg
		{
			OFFSET -4.081825 -39.591045 13.023800
			CHANNELS 3 Xrotation Yrotation Zrotation
			JOINT RightFoot
			{
				OFFSET 4.081824 -37.707954 -15.979600
				CHANNELS 3 Xrotation Yrotation Zrotation
				JOINT RightToeBase
				{
					OFFSET -5.346400 -15.068900 20.645000
					CHANNELS 3 Xrotation Yrotation Zrotation
					JOINT RightToe_End
					{
						OFFSET -2.754700 0.931300 11.300900
						CHANNELS 3 Xrotation Yrotation Zrotation
						End Site
						{
							OFFSET 0.000000 11.669021 0.000000
						}
					}
				}
			}
		}
	}
}
MOTION
Frames: 4
Frame Time: 0.033333
13.693790 41.953697 -9.511916 -5.678225 -16.432759 16.416377 1.879422 10.645354 -1.464031 3.794294 4.411755 -3.779031 3.801396 4.414735 -3.768182 5.825902 0.455822 0.050114 9.739907 6.794193 -18.391136 -0.000000 -0.000001 -0.000000 0.997350 -1.244349 -11.651887 -12.159895 6.153949 -50.858774 -0.000003 -11.245039 0.000002 19.545635 -19.322685 -32.740259 -1.540039 3.690186 6.142351 3.946763 7.971398 0.752863 -0.575603 1.586250 2.542370 0.000001 -0.000002 -0.000001 -0.000003 0.000002 -0.000000 0.000003 -0.000002 0.000001 -0.000003 -0.000005 -0.000020 0.000000 0.000001 0.000001 -0.000003 -0.001935 0.015980 0.000003 0.001932 -0.015980 -0.000003 -0.000005 -0.000023 -0.000001 0.000001 -0.000001 -0.000003 0.000002 -0.000000 -0.000002 0.000002 -0.000030 -0.000001 -0.000007 -0.000014 -0.000000 -0.000000 -0.000000 -0.018101 4.054256 0.511051 -0.018089 -4.054254 -0.511059 -0.000005 -0.000002 -0.000018 0.000002 0.000000 0.000001 1.086765 5.151639 2.297367 -53.726391 21.052984 44.438727 0.000099 109.489053 -0.000076 -52.096759 2.794064 4.598694 28.092696 -3.581767 -6.586151 6.338032 -28.386119 -1.440686 -0.402571 -9.711808 -3.114026 -0.000002 0.000000 -0.000001 4.743970 -6.590949 71.461524 6.463004 -6.931351 85.985648 1.855628 -4.733122 42.796917 -0.000000 -0.000001 0.000000 4.743971 -6.590949 71.461524 6.463008 -6.931353 85.985648 1.855621 -4.733126 42.796913 -0.000000 0.000001 0.000002 4.743974 -6.590952 71.461524 6.463011 -6.931352 85.985654 1.855626 -4.733120 42.796917 -0.000001 -0.000002 -0.000002 4.743970 -6.590949 71.461524 6.463015 -6.931360 85.985654 1.855623 -4.733114 42.796917 -0.000000 0.000000 0.000004 -80.474149 -5.736039 32.955331 62.192964 14.771898 0.460006 39.919403 -4.158871 -10.709475 -0.000016 -0.000003 -0.000008 -0.000000 0.000000 -0.000000 21.276031 -2.229378 -46.172424 96.728968 17.802022 7.453709 -10.768160 -1.716405 24.661848 49.467853 -9.575670 -28.031878 0.000002 -0.000001 -0.000000 
13.903814 41.821869 -9.842361 -6.186623 -18.841019 16.232580 1.674881 9.559453 -0.767674 3.424826 2.987148 -2.897762 3.429738 2.985850 -2.893128 4.762594 1.267857 -0.033017 8.914609 10.845689 -19.926192 -0.000000 -0.000001 -0.000000 1.089576 -2.195265 -11.804279 -14.217377 9.666333 -50.969580 0.000005 -10.286279 0.000000 26.463291 -18.626062 -31.211946 -1.540040 3.690180 6.142352 3.946760 7.971394 0.752865 -0.575607 1.586248 2.542372 -0.000000 0.000002 0.000000 -0.000007 -0.000001 0.000002 0.000005 -0.000001 0.000001 -0.000006 -0.000002 -0.000021 -0.000001 0.000001 -0.000001 -0.000006 -0.001936 0.015982 0.000002 0.001936 -0.015979 -0.000003 -0.000006 -0.000022 0.000002 -0.000001 0.000001 -0.000007 -0.000001 0.000002 -0.000002 0.000003 -0.000031 -0.000003 -0.000002 -0.000015 -0.000001 0.000001 -0.000001 -0.018105 4.054253 0.511054 -0.018090 -4.054250 -0.511059 -0.000010 -0.000003 -0.000019 -0.000001 -0.000001 -0.000001 1.405457 7.166589 3.031700 -54.749984 18.724091 46.234961 0.000037 120.005905 -0.000042 -53.045045 1.089287 6.981486 28.092691 -3.581767 -6.586150 6.338033 -28.386119 -1.440684 -0.402571 -9.711804 -3.114027 0.000000 -0.000001 0.000000 4.743965 -6.590945 71.461524 6.463003 -6.931349 85.985648 1.855625 -4.733121 42.796917 0.000002 -0.000001 0.000000 4.743966 -6.590943 71.461524 6.463005 -6.931352 85.985648 1.855625 -4.733126 42.796917 0.000000 -0.000000 0.000002 4.743970 -6.590948 71.461524 6.463008 -6.931353 85.985648 1.855627 -4.733121 42.796917 0.000000 -0.000000 0.000001 4.743966 -6.590944 71.461524 6.463011 -6.931358 85.985648 1.855624 -4.733115 42.796917 0.000001 0.000000 -0.000001 -78.714194 -6.352610 34.693710 62.664998 14.229070 0.300201 39.775675 -3.443354 -12.078572 -0.000016 -0.000002 -0.000008 -0.000000 0.000002 -0.000000 20.520935 -0.216604 -46.734921 98.241227 18.387790 6.313378 -10.713522 -2.662499 24.269361 49.582512 -9.411891 -27.894947 0.000000 0.000000 0.000001 
14.058620 41.751724 -10.204803 -6.590733 -20.748288 16.069538 1.516704 8.648593 -0.207296 3.129516 1.827444 -2.137756 3.130731 1.824188 -2.138719 4.330830 1.803274 0.140533 8.737289 13.809924 -20.990192 0.000000 -0.000000 -0.000000 1.188840 -3.362538 -11.862083 -16.306710 12.536595 -50.535426 0.000004 -11.043372 0.000015 32.055864 -17.197767 -31.173233 -1.540041 3.690184 6.142346 3.946762 7.971396 0.752864 -0.575610 1.586248 2.542370 0.000000 -0.000001 -0.000000 -0.000001 0.000001 -0.000001 0.000005 -0.000000 -0.000001 -0.000010 -0.000005 -0.000022 -0.000001 0.000001 0.000000 -0.000002 -0.001934 0.015977 -0.000001 0.001936 -0.015979 -0.000008 -0.000008 -0.000023 0.000001 0.000000 0.000002 -0.000001 0.000001 -0.000001 0.000001 0.000000 -0.000031 0.000002 -0.000004 -0.000017 0.000002 0.000002 0.000001 -0.018103 4.054257 0.511049 -0.018088 -4.054253 -0.511060 -0.000010 -0.000004 -0.000023 -0.000001 0.000001 -0.000002 1.627239 8.369005 3.556785 -54.887851 17.162479 47.758134 0.000009 122.334289 -0.000025 -54.500770 0.250632 8.759896 28.092691 -3.581767 -6.586149 6.338030 -28.386123 -1.440685 -0.402570 -9.711809 -3.114026 -0.000004 -0.000003 0.000001 4.743965 -6.590948 71.461524 6.463004 -6.931348 85.985654 1.855624 -4.733120 42.796917 0.000000 -0.000000 0.000001 4.743966 -6.590947 71.461524 6.463006 -6.931349 85.985654 1.855622 -4.733125 42.796913 0.000000 -0.000000 -0.000004 4.743969 -6.590951 71.461517 6.463008 -6.931346 85.985648 1.855624 -4.733119 42.796913 -0.000001 -0.000000 -0.000002 4.743965 -6.590948 71.461524 6.463014 -6.931356 85.985654 1.855623 -4.733116 42.796917 -0.000001 -0.000001 0.000000 -77.269691 -6.654697 36.087591 62.817769 13.763081 0.175013 39.775948 -2.828725 -13.070860 -0.000016 -0.000002 -0.000008 -0.000000 -0.000000 -0.000000 20.827946 2.328937 -47.841240 99.158555 18.620323 6.450905 -10.548566 -2.381635 24.328444 49.647119 -9.260250 -27.807706 -0.000001 0.000000 0.000000 
14.205515 41.618202 -10.604930 -7.193454 -22.365736 15.799430 1.468891 7.969454 0.260769 3.056016 0.994918 -1.507272 3.054456 0.990552 -1.513327 4.284228 2.142306 0.298651 9.005000 15.784192 -21.812633 -0.000000 0.000000 -0.000000 1.276606 -4.620018 -11.808373 -18.569488 14.045767 -49.778893 -0.000000 -12.335152 -0.000004 35.876095 -15.945831 -31.104504 -1.540036 3.690183 6.142352 3.946759 7.971393 0.752864 -0.575603 1.586247 2.542369 -0.000002 0.000001 0.000001 -0.000004 0.000000 -0.000000 0.000005 -0.000003 -0.000000 -0.000006 -0.000003 -0.000020 -0.000001 0.000000 -0.000000 -0.000003 -0.001936 0.015982 -0.000004 0.001936 -0.015980 -0.000006 -0.000006 -0.000025 0.000002 0.000000 0.000002 -0.000004 0.000000 -0.000000 -0.000003 0.000002 -0.000030 -0.000001 -0.000004 -0.000014 -0.000003 -0.000002 0.000001 -0.018100 4.054256 0.511054 -0.018096 -4.054253 -0.511053 -0.000006 -0.000004 -0.000018 -0.000001 0.000002 -0.000002 1.760418 8.969766 3.888494 -54.772055 15.912404 48.186554 0.000028 122.489197 -0.000055 -56.793504 -0.886657 9.800153 28.092688 -3.581766 -6.586151 6.338033 -28.386123 -1.440682 -0.402570 -9.711806 -3.114026 0.000001 -0.000001 -0.000000 4.743968 -6.590947 71.461524 6.463003 -6.931349 85.985654 1.855628 -4.733122 42.796917 0.000001 -0.000001 -0.000004 4.743968 -6.590946 71.461524 6.463006 -6.931352 85.985654 1.855622 -4.733125 42.796913 0.000000 0.000001 -0.000000 4.743971 -6.590952 71.461524 6.463008 -6.931352 85.985648 1.855625 -4.733120 42.796913 -0.000000 -0.000000 -0.000001 4.743968 -6.590947 71.461524 6.463014 -6.931359 85.985654 1.855623 -4.733116 42.796917 0.000001 -0.000001 -0.000003 -75.925291 -6.859818 37.272417 62.857712 13.377368 0.066932 39.919925 -2.344211 -13.757127 -0.000016 -0.000002 -0.000008 -0.000000 0.000000 0.000000 21.705755 4.708942 -49.083194 99.910218 18.730788 6.870146 -10.477514 -1.664129 24.515429 49.697392 -9.117491 -27.735627 -0.000001 0.000000 0.000001 
